<svg width="38" height="54" viewBox="0 0 38 54" fill="none" xmlns="http://www.w3.org/2000/svg">
<g clip-path="url(#clip0_159_72)">
<mask id="path-1-outside-1_159_72" maskUnits="userSpaceOnUse" x="3.64567" y="11.0014" width="28.9118" height="36.8636" fill="black">
<rect fill="white" x="3.64567" y="11.0014" width="28.9118" height="36.8636"/>
<path d="M17.164 19.883L26.801 20.9552L23.9947 33.7848M9.37628 37.4194L26.6268 21.1199Z"/>
</mask>
<path d="M17.164 19.883L26.801 20.9552L23.9947 33.7848M9.37628 37.4194L26.6268 21.1199Z" fill="#6311CB" fill-opacity="0.78"/>
<path d="M17.4002 18.2074C16.7146 18.1311 16.053 18.8195 15.9225 19.7449C15.792 20.6703 16.2421 21.4824 16.9278 21.5587L17.4002 18.2074ZM26.801 20.9552L28.012 21.2635C28.1143 20.7958 28.0667 20.3131 27.8809 19.9349C27.6951 19.5568 27.3885 19.3187 27.0372 19.2796L26.801 20.9552ZM22.7837 33.4766C22.584 34.3894 22.9644 35.2674 23.6332 35.4376C24.302 35.6079 25.006 35.0059 25.2057 34.093L22.7837 33.4766ZM8.71966 36.0831C8.12328 36.6466 7.9338 37.7017 8.29644 38.4397C8.65908 39.1778 9.43651 39.3193 10.0329 38.7558L8.71966 36.0831ZM27.2834 22.4562C27.8798 21.8927 28.0693 20.8376 27.7066 20.0996C27.344 19.3615 26.5665 19.22 25.9702 19.7836L27.2834 22.4562ZM16.9278 21.5587L26.5648 22.6309L27.0372 19.2796L17.4002 18.2074L16.9278 21.5587ZM25.59 20.647L22.7837 33.4766L25.2057 34.093L28.012 21.2635L25.59 20.647ZM10.0329 38.7558L27.2834 22.4562L25.9702 19.7836L8.71966 36.0831L10.0329 38.7558Z" fill="#6311CB" fill-opacity="0.78" mask="url(#path-1-outside-1_159_72)"/>
</g>
<defs>
<clipPath id="clip0_159_72">
<rect width="34" height="31" fill="white" transform="matrix(0.573021 -0.819541 0.573021 0.819541 0 27.8644)"/>
</clipPath>
</defs>
</svg>
