<svg width="212" height="122" viewBox="0 0 212 122" fill="none" xmlns="http://www.w3.org/2000/svg">
<line y1="-2" x2="33.1593" y2="-2" transform="matrix(0.784422 -0.620227 -0.666422 -0.745575 144.904 72.8506)" stroke="black" stroke-width="4" stroke-dasharray="20 20"/>
<line y1="-2" x2="33.1593" y2="-2" transform="matrix(0.784422 -0.620227 -0.666422 -0.745575 144.904 72.8506)" stroke="black" stroke-opacity="0.2" stroke-width="4" stroke-dasharray="20 20"/>
<path d="M195.157 6.70719C196.242 6.31212 197.414 6.79293 197.773 7.7811L203.634 23.8844C203.994 24.8726 203.406 25.9939 202.32 26.389C201.235 26.7841 200.063 26.3033 199.704 25.3151L194.494 11.001L178.771 16.7238C177.685 17.1189 176.514 16.638 176.154 15.6499C175.794 14.6617 176.383 13.5403 177.468 13.1453L195.157 6.70719ZM179.076 36.1005L182.796 29.0096L186.497 30.5284L182.776 37.6192L179.076 36.1005ZM190.237 14.8279L193.958 7.73708L197.658 9.25582L193.938 16.3467L190.237 14.8279Z" fill="black"/>
<path d="M195.157 6.70719C196.242 6.31212 197.414 6.79293 197.773 7.7811L203.634 23.8844C203.994 24.8726 203.406 25.9939 202.32 26.389C201.235 26.7841 200.063 26.3033 199.704 25.3151L194.494 11.001L178.771 16.7238C177.685 17.1189 176.514 16.638 176.154 15.6499C175.794 14.6617 176.383 13.5403 177.468 13.1453L195.157 6.70719ZM179.076 36.1005L182.796 29.0096L186.497 30.5284L182.776 37.6192L179.076 36.1005ZM190.237 14.8279L193.958 7.73708L197.658 9.25582L193.938 16.3467L190.237 14.8279Z" fill="black" fill-opacity="0.2"/>
<line y1="-2" x2="32.3789" y2="-2" transform="matrix(0.962866 0.269979 0.356524 -0.934286 2 69.4147)" stroke="black" stroke-width="4" stroke-dasharray="20 20"/>
<line y1="-2" x2="32.3789" y2="-2" transform="matrix(0.962866 0.269979 0.356524 -0.934286 2 69.4147)" stroke="black" stroke-opacity="0.2" stroke-width="4" stroke-dasharray="20 20"/>
<line y1="-2" x2="32.6813" y2="-2" transform="matrix(0.985896 0.167359 0.249788 -0.968301 48.4944 84.0979)" stroke="black" stroke-width="4" stroke-dasharray="20 20"/>
<line y1="-2" x2="32.6813" y2="-2" transform="matrix(0.985896 0.167359 0.249788 -0.968301 48.4944 84.0979)" stroke="black" stroke-opacity="0.2" stroke-width="4" stroke-dasharray="20 20"/>
<line y1="-2" x2="33.4746" y2="-2" transform="matrix(0.963881 -0.266332 -0.25056 -0.968101 97.6251 91.0268)" stroke="black" stroke-width="4" stroke-dasharray="20 20"/>
<line y1="-2" x2="33.4746" y2="-2" transform="matrix(0.963881 -0.266332 -0.25056 -0.968101 97.6251 91.0268)" stroke="black" stroke-opacity="0.2" stroke-width="4" stroke-dasharray="20 20"/>
</svg>
