<svg width="195" height="74" viewBox="0 0 195 74" fill="none" xmlns="http://www.w3.org/2000/svg">
<line x1="124.364" y1="7.37553" x2="154.505" y2="15.4517" stroke="black" stroke-width="4" stroke-dasharray="20 20"/>
<line x1="124.364" y1="7.37553" x2="154.505" y2="15.4517" stroke="black" stroke-opacity="0.2" stroke-width="4" stroke-dasharray="20 20"/>
<path d="M192.678 49.5258C193.778 49.4295 194.592 48.4594 194.496 47.3591L192.927 29.4276C192.831 28.3272 191.861 27.5132 190.76 27.6095C189.66 27.7058 188.846 28.6758 188.942 29.7762L190.337 45.7153L174.398 47.1098C173.297 47.2061 172.483 48.1761 172.58 49.2765C172.676 50.3769 173.646 51.1908 174.746 51.0946L192.678 49.5258ZM167.315 29.0081L173.29 34.0224L175.862 30.9582L169.886 25.9439L167.315 29.0081ZM185.242 44.0511L191.218 49.0655L193.789 46.0013L187.813 40.9869L185.242 44.0511Z" fill="black"/>
<path d="M192.678 49.5258C193.778 49.4295 194.592 48.4594 194.496 47.3591L192.927 29.4276C192.831 28.3272 191.861 27.5132 190.76 27.6095C189.66 27.7058 188.846 28.6758 188.942 29.7762L190.337 45.7153L174.398 47.1098C173.297 47.2061 172.483 48.1761 172.58 49.2765C172.676 50.3769 173.646 51.1908 174.746 51.0946L192.678 49.5258ZM167.315 29.0081L173.29 34.0224L175.862 30.9582L169.886 25.9439L167.315 29.0081ZM185.242 44.0511L191.218 49.0655L193.789 46.0013L187.813 40.9869L185.242 44.0511Z" fill="black" fill-opacity="0.2"/>
<line x1="3.59469" y1="71.7715" x2="26.324" y2="50.3926" stroke="black" stroke-width="4" stroke-dasharray="20 20"/>
<line x1="3.59469" y1="71.7715" x2="26.324" y2="50.3926" stroke="black" stroke-opacity="0.2" stroke-width="4" stroke-dasharray="20 20"/>
<line x1="36.9975" y1="38.2167" x2="61.918" y2="19.4378" stroke="black" stroke-width="4" stroke-dasharray="20 20"/>
<line x1="36.9975" y1="38.2167" x2="61.918" y2="19.4378" stroke="black" stroke-opacity="0.2" stroke-width="4" stroke-dasharray="20 20"/>
<line x1="76.4197" y1="10.5222" x2="107.149" y2="5.10367" stroke="black" stroke-width="4" stroke-dasharray="20 20"/>
<line x1="76.4197" y1="10.5222" x2="107.149" y2="5.10367" stroke="black" stroke-opacity="0.2" stroke-width="4" stroke-dasharray="20 20"/>
</svg>
