<svg width="160" height="58" viewBox="0 0 160 58" fill="none" xmlns="http://www.w3.org/2000/svg">
<g filter="url(#filter0_d_159_74)">
<path d="M4 27.589C4 15.7408 13.6049 6.13586 25.4532 6.13586H134.547C146.395 6.13586 156 15.7408 156 27.589V27.589C156 39.4373 146.395 49.0422 134.547 49.0422H25.4532C13.6049 49.0422 4 39.4373 4 27.589V27.589Z" fill="#6E16B2" fill-opacity="0.17" shape-rendering="crispEdges"/>
</g>
<path d="M55.416 24.8639C55.416 26.5919 54.584 28.0559 52.92 29.2559C51.272 30.4559 49.088 31.3199 46.368 31.8479C45.2 35.7999 44.504 37.7759 44.28 37.7759C44.056 37.7759 43.792 37.5999 43.488 37.2479C43.184 36.8799 43.032 36.5199 43.032 36.1679C43.032 35.7999 43.264 34.8399 43.728 33.2879C45.168 28.5039 45.92 25.1679 45.984 23.2799C45.6 22.9279 45.408 22.6079 45.408 22.3199C45.408 21.9199 45.952 21.5359 47.04 21.1679C48.128 20.7999 49.168 20.6159 50.16 20.6159C51.696 20.6159 52.952 21.0079 53.928 21.7919C54.92 22.5759 55.416 23.5999 55.416 24.8639ZM53.304 25.0079C53.304 24.3039 53.032 23.7279 52.488 23.2799C51.96 22.8159 51.32 22.5839 50.568 22.5839C49.816 22.5839 48.904 22.8239 47.832 23.3039C47.992 23.6559 48.072 23.9839 48.072 24.2879C48.072 25.1839 47.68 27.0799 46.896 29.9759C48.816 29.4639 50.36 28.7599 51.528 27.8639C52.712 26.9519 53.304 25.9999 53.304 25.0079ZM58.8473 22.4639C58.8473 22.1439 58.9753 21.8399 59.2313 21.5519C59.4873 21.2639 59.7433 21.1199 59.9993 21.1199C60.2713 21.1199 60.5913 21.4479 60.9593 22.1039C61.3273 22.7439 61.5113 23.2799 61.5113 23.7119C61.5113 23.8719 61.4393 24.0159 61.2953 24.1439C61.1513 24.2719 60.9993 24.3359 60.8393 24.3359C60.4553 24.3359 60.0233 24.1039 59.5433 23.6399C59.0793 23.1759 58.8473 22.7839 58.8473 22.4639ZM58.7273 25.8719C59.0313 25.8719 59.3193 26.0559 59.5913 26.4239C59.8633 26.7919 59.9993 27.1519 59.9993 27.5039C59.9993 27.8559 59.7673 28.9119 59.3033 30.6719C58.8393 32.4159 58.2553 34.3759 57.5513 36.5519C57.2793 37.3519 56.9353 37.7519 56.5193 37.7519C56.2953 37.7519 56.1033 37.6639 55.9433 37.4879C55.7833 37.2959 55.7033 37.0879 55.7033 36.8639C55.7033 36.6239 55.7593 36.2559 55.8713 35.7599C55.9993 35.2479 56.1753 34.5759 56.3993 33.7439C56.6393 32.8959 56.8233 32.2079 56.9513 31.6799C57.0953 31.1519 57.2393 30.5599 57.3833 29.9039C57.5273 29.2319 57.6393 28.6959 57.7193 28.2959C57.8153 27.8799 57.9193 27.4639 58.0312 27.0479C58.2553 26.2639 58.4873 25.8719 58.7273 25.8719ZM65.358 37.7759C64.43 37.7759 63.558 37.4159 62.742 36.6959C61.926 35.9599 61.518 35.0959 61.518 34.1039C61.518 33.0959 61.854 31.9359 62.526 30.6239C63.198 29.3119 64.062 28.1919 65.118 27.2639C66.19 26.3359 67.23 25.8719 68.238 25.8719C68.894 25.8719 69.47 26.1679 69.966 26.7599C70.462 27.3519 70.71 27.8719 70.71 28.3199C70.71 28.4479 70.67 28.5599 70.59 28.6559C70.51 28.7359 70.39 28.7759 70.23 28.7759C70.086 28.7759 69.822 28.6319 69.438 28.3439C69.054 28.0559 68.71 27.9119 68.406 27.9119C67.542 27.9119 66.534 28.6719 65.382 30.1919C64.23 31.7119 63.654 33.0399 63.654 34.1759C63.654 34.6719 63.806 35.0639 64.11 35.3519C64.43 35.6399 64.934 35.7839 65.622 35.7839C66.326 35.7839 66.966 35.7039 67.542 35.5439C68.134 35.3679 68.59 35.1999 68.91 35.0399C69.23 34.8639 69.478 34.7759 69.654 34.7759C69.958 34.7759 70.11 34.9279 70.11 35.2319C70.11 35.6959 69.55 36.2399 68.43 36.8639C67.326 37.4719 66.302 37.7759 65.358 37.7759ZM82.7895 27.1679C82.7895 27.3119 82.0775 28.0639 80.6535 29.4239C80.1255 29.9359 79.6375 30.5439 79.1895 31.2479C78.7575 31.9359 78.5415 32.5679 78.5415 33.1439C78.5415 33.7199 78.7095 34.2559 79.0455 34.7519C79.3975 35.2319 79.7735 35.5999 80.1735 35.8559C80.5895 36.0959 80.9655 36.3359 81.3015 36.5759C81.6535 36.8159 81.8295 37.0159 81.8295 37.1759C81.8295 37.5759 81.5095 37.7759 80.8695 37.7759C80.2455 37.7759 79.4935 37.4239 78.6135 36.7199C77.7495 35.9999 77.2135 35.1999 77.0055 34.3199C76.9255 34.1599 76.8615 34.0079 76.8135 33.8639C75.7255 35.3359 74.9335 36.3599 74.4375 36.9359C73.9575 37.4959 73.5975 37.7759 73.3575 37.7759C73.1175 37.7759 72.8535 37.5919 72.5655 37.2239C72.2775 36.8399 72.1335 36.5279 72.1335 36.2879C72.1335 36.0319 72.3895 34.9999 72.9015 33.1919C73.4295 31.3679 73.9495 29.1839 74.4615 26.6399C74.9895 24.0959 75.2535 21.8239 75.2535 19.8239C75.2535 19.5679 75.2855 19.3919 75.3495 19.2959C75.4295 19.1999 75.5895 19.1519 75.8295 19.1519C76.0695 19.1519 76.3655 19.3919 76.7175 19.8719C77.0695 20.3359 77.2455 20.7919 77.2455 21.2399C77.2455 22.6639 76.9575 24.6559 76.3815 27.2159C75.8055 29.7759 75.1175 32.2079 74.3175 34.5119C76.1255 31.9359 77.6855 29.8559 78.9975 28.2719C80.3255 26.6719 81.1415 25.8719 81.4455 25.8719C81.7655 25.8719 82.0695 26.0239 82.3575 26.3279C82.6455 26.6319 82.7895 26.9119 82.7895 27.1679Z" fill="#6311CB" fill-opacity="0.78"/>
<g clip-path="url(#clip0_159_74)">
<mask id="path-3-outside-1_159_74" maskUnits="userSpaceOnUse" x="92.6457" y="11.0014" width="28.9118" height="36.8636" fill="black">
<rect fill="white" x="92.6457" y="11.0014" width="28.9118" height="36.8636"/>
<path d="M106.164 19.883L115.801 20.9552L112.995 33.7848M98.3763 37.4194L115.627 21.1199Z"/>
</mask>
<path d="M106.164 19.883L115.801 20.9552L112.995 33.7848M98.3763 37.4194L115.627 21.1199Z" fill="#6311CB" fill-opacity="0.78"/>
<path d="M106.4 18.2074C105.715 18.1311 105.053 18.8195 104.922 19.7449C104.792 20.6703 105.242 21.4824 105.928 21.5587L106.4 18.2074ZM115.801 20.9552L117.012 21.2635C117.114 20.7958 117.067 20.3131 116.881 19.9349C116.695 19.5568 116.389 19.3187 116.037 19.2796L115.801 20.9552ZM111.784 33.4766C111.584 34.3894 111.964 35.2674 112.633 35.4376C113.302 35.6079 114.006 35.0059 114.206 34.093L111.784 33.4766ZM97.7197 36.0831C97.1233 36.6466 96.9338 37.7017 97.2964 38.4397C97.6591 39.1778 98.4365 39.3193 99.0329 38.7558L97.7197 36.0831ZM116.283 22.4562C116.88 21.8927 117.069 20.8376 116.707 20.0996C116.344 19.3615 115.567 19.22 114.97 19.7836L116.283 22.4562ZM105.928 21.5587L115.565 22.6309L116.037 19.2796L106.4 18.2074L105.928 21.5587ZM114.59 20.647L111.784 33.4766L114.206 34.093L117.012 21.2635L114.59 20.647ZM99.0329 38.7558L116.283 22.4562L114.97 19.7836L97.7197 36.0831L99.0329 38.7558Z" fill="#6311CB" fill-opacity="0.78" mask="url(#path-3-outside-1_159_74)"/>
</g>
<defs>
<filter id="filter0_d_159_74" x="0" y="6.13586" width="160" height="50.9063" filterUnits="userSpaceOnUse" color-interpolation-filters="sRGB">
<feFlood flood-opacity="0" result="BackgroundImageFix"/>
<feColorMatrix in="SourceAlpha" type="matrix" values="0 0 0 0 0 0 0 0 0 0 0 0 0 0 0 0 0 0 127 0" result="hardAlpha"/>
<feOffset dy="4"/>
<feGaussianBlur stdDeviation="2"/>
<feComposite in2="hardAlpha" operator="out"/>
<feColorMatrix type="matrix" values="0 0 0 0 0 0 0 0 0 0 0 0 0 0 0 0 0 0 0.25 0"/>
<feBlend mode="normal" in2="BackgroundImageFix" result="effect1_dropShadow_159_74"/>
<feBlend mode="normal" in="SourceGraphic" in2="effect1_dropShadow_159_74" result="shape"/>
</filter>
<clipPath id="clip0_159_74">
<rect width="34" height="31" fill="white" transform="matrix(0.573021 -0.819541 0.573021 0.819541 89 27.8644)"/>
</clipPath>
</defs>
</svg>
