<svg width="1442" height="227" viewBox="0 0 1442 227" fill="none" xmlns="http://www.w3.org/2000/svg">
<path d="M1 13.5C25 -3.16667 49 -3.16667 73 13.5C97 30.1667 121 30.1667 145 13.5C169 -3.16667 193 -3.16667 217 13.5C241 30.1667 265 30.1667 289 13.5C313 -3.16667 337 -3.16667 361 13.5C385 30.1667 409 30.1667 433 13.5C457 -3.16667 481 -3.16667 505 13.5C529 30.1667 553 30.1667 577 13.5C601 -3.16667 625 -3.16667 649 13.5C673 30.1667 697 30.1667 721 13.5C745 -3.16667 769 -3.16667 793 13.5C817 30.1667 841 30.1667 865 13.5C889 -3.16667 913 -3.16667 937 13.5C961 30.1667 985 30.1667 1009 13.5C1033 -3.16667 1057 -3.16667 1081 13.5C1105 30.1667 1129 30.1667 1153 13.5C1177 -3.16667 1201 -3.16667 1225 13.5C1249 30.1667 1273 30.1667 1297 13.5C1321 -3.16667 1345 -3.16667 1369 13.5C1393 30.1667 1417 30.1667 1441 13.5M1 53.5C25 36.8333 49 36.8333 73 53.5C97 70.1667 121 70.1667 145 53.5C169 36.8333 193 36.8333 217 53.5C241 70.1667 265 70.1667 289 53.5C313 36.8333 337 36.8333 361 53.5C385 70.1667 409 70.1667 433 53.5C457 36.8333 481 36.8333 505 53.5C529 70.1667 553 70.1667 577 53.5C601 36.8333 625 36.8333 649 53.5C673 70.1667 697 70.1667 721 53.5C745 36.8333 769 36.8333 793 53.5C817 70.1667 841 70.1667 865 53.5C889 36.8333 913 36.8333 937 53.5C961 70.1667 985 70.1667 1009 53.5C1033 36.8333 1057 36.8333 1081 53.5C1105 70.1667 1129 70.1667 1153 53.5C1177 36.8333 1201 36.8333 1225 53.5C1249 70.1667 1273 70.1667 1297 53.5C1321 36.8333 1345 36.8333 1369 53.5C1393 70.1667 1417 70.1667 1441 53.5M1 93.5C25 76.8333 49 76.8333 73 93.5C97 110.167 121 110.167 145 93.5C169 76.8333 193 76.8333 217 93.5C241 110.167 265 110.167 289 93.5C313 76.8333 337 76.8333 361 93.5C385 110.167 409 110.167 433 93.5C457 76.8333 481 76.8333 505 93.5C529 110.167 553 110.167 577 93.5C601 76.8333 625 76.8333 649 93.5C673 110.167 697 110.167 721 93.5C745 76.8333 769 76.8333 793 93.5C817 110.167 841 110.167 865 93.5C889 76.8333 913 76.8333 937 93.5C961 110.167 985 110.167 1009 93.5C1033 76.8333 1057 76.8333 1081 93.5C1105 110.167 1129 110.167 1153 93.5C1177 76.8333 1201 76.8333 1225 93.5C1249 110.167 1273 110.167 1297 93.5C1321 76.8333 1345 76.8333 1369 93.5C1393 110.167 1417 110.167 1441 93.5M1 133.5C25 116.833 49 116.833 73 133.5C97 150.167 121 150.167 145 133.5C169 116.833 193 116.833 217 133.5C241 150.167 265 150.167 289 133.5C313 116.833 337 116.833 361 133.5C385 150.167 409 150.167 433 133.5C457 116.833 481 116.833 505 133.5C529 150.167 553 150.167 577 133.5C601 116.833 625 116.833 649 133.5C673 150.167 697 150.167 721 133.5C745 116.833 769 116.833 793 133.5C817 150.167 841 150.167 865 133.5C889 116.833 913 116.833 937 133.5C961 150.167 985 150.167 1009 133.5C1033 116.833 1057 116.833 1081 133.5C1105 150.167 1129 150.167 1153 133.5C1177 116.833 1201 116.833 1225 133.5C1249 150.167 1273 150.167 1297 133.5C1321 116.833 1345 116.833 1369 133.5C1393 150.167 1417 150.167 1441 133.5M1 173.5C25 156.833 49 156.833 73 173.5C97 190.167 121 190.167 145 173.5C169 156.833 193 156.833 217 173.5C241 190.167 265 190.167 289 173.5C313 156.833 337 156.833 361 173.5C385 190.167 409 190.167 433 173.5C457 156.833 481 156.833 505 173.5C529 190.167 553 190.167 577 173.5C601 156.833 625 156.833 649 173.5C673 190.167 697 190.167 721 173.5C745 156.833 769 156.833 793 173.5C817 190.167 841 190.167 865 173.5C889 156.833 913 156.833 937 173.5C961 190.167 985 190.167 1009 173.5C1033 156.833 1057 156.833 1081 173.5C1105 190.167 1129 190.167 1153 173.5C1177 156.833 1201 156.833 1225 173.5C1249 190.167 1273 190.167 1297 173.5C1321 156.833 1345 156.833 1369 173.5C1393 190.167 1417 190.167 1441 173.5M1 213.5C25 196.833 49 196.833 73 213.5C97 230.167 121 230.167 145 213.5C169 196.833 193 196.833 217 213.5C241 230.167 265 230.167 289 213.5C313 196.833 337 196.833 361 213.5C385 230.167 409 230.167 433 213.5C457 196.833 481 196.833 505 213.5C529 230.167 553 230.167 577 213.5C601 196.833 625 196.833 649 213.5C673 230.167 697 230.167 721 213.5C745 196.833 769 196.833 793 213.5C817 230.167 841 230.167 865 213.5C889 196.833 913 196.833 937 213.5C961 230.167 985 230.167 1009 213.5C1033 196.833 1057 196.833 1081 213.5C1105 230.167 1129 230.167 1153 213.5C1177 196.833 1201 196.833 1225 213.5C1249 230.167 1273 230.167 1297 213.5C1321 196.833 1345 196.833 1369 213.5C1393 230.167 1417 230.167 1441 213.5" stroke="url(#paint0_linear_329_23)" stroke-width="2"/>
<defs>
<linearGradient id="paint0_linear_329_23" x1="721" y1="1" x2="721" y2="226" gradientUnits="userSpaceOnUse">
<stop stop-color="#594296" stop-opacity="0"/>
<stop offset="1" stop-color="#594296"/>
</linearGradient>
</defs>
</svg>
