<svg width="2002" height="387" viewBox="0 0 2002 387" fill="none" xmlns="http://www.w3.org/2000/svg">
<path opacity="0.6" d="M2001 373.5C1967.67 390.167 1934.33 390.167 1901 373.5C1867.67 356.833 1834.33 356.833 1801 373.5C1767.67 390.167 1734.33 390.167 1701 373.5C1667.67 356.833 1634.33 356.833 1601 373.5C1567.67 390.167 1534.33 390.167 1501 373.5C1467.67 356.833 1434.33 356.833 1401 373.5C1367.67 390.167 1334.33 390.167 1301 373.5C1267.67 356.833 1234.33 356.833 1201 373.5C1167.67 390.167 1134.33 390.167 1101 373.5C1067.67 356.833 1034.33 356.833 1001 373.5C967.667 390.167 934.333 390.167 901 373.5C867.667 356.833 834.333 356.833 801 373.5C767.667 390.167 734.333 390.167 701 373.5C667.667 356.833 634.333 356.833 601 373.5C567.667 390.167 534.333 390.167 501 373.5C467.667 356.833 434.333 356.833 401 373.5C367.667 390.167 334.333 390.167 301 373.5C267.667 356.833 234.333 356.833 201 373.5C167.667 390.167 134.333 390.167 101 373.5C67.6666 356.833 34.3334 356.833 1 373.5M2001 193.5C1967.67 210.167 1934.33 210.167 1901 193.5C1867.67 176.833 1834.33 176.833 1801 193.5C1767.67 210.167 1734.33 210.167 1701 193.5C1667.67 176.833 1634.33 176.833 1601 193.5C1567.67 210.167 1534.33 210.167 1501 193.5C1467.67 176.833 1434.33 176.833 1401 193.5C1367.67 210.167 1334.33 210.167 1301 193.5C1267.67 176.833 1234.33 176.833 1201 193.5C1167.67 210.167 1134.33 210.167 1101 193.5C1067.67 176.833 1034.33 176.833 1001 193.5C967.667 210.167 934.333 210.167 901 193.5C867.667 176.833 834.333 176.833 801 193.5C767.667 210.167 734.333 210.167 701 193.5C667.667 176.833 634.333 176.833 601 193.5C567.667 210.167 534.333 210.167 501 193.5C467.667 176.833 434.333 176.833 401 193.5C367.667 210.167 334.333 210.167 301 193.5C267.667 176.833 234.333 176.833 201 193.5C167.667 210.167 134.333 210.167 101 193.5C67.6666 176.833 34.3334 176.833 1 193.5M2001 283.5C1967.67 300.167 1934.33 300.167 1901 283.5C1867.67 266.833 1834.33 266.833 1801 283.5C1767.67 300.167 1734.33 300.167 1701 283.5C1667.67 266.833 1634.33 266.833 1601 283.5C1567.67 300.167 1534.33 300.167 1501 283.5C1467.67 266.833 1434.33 266.833 1401 283.5C1367.67 300.167 1334.33 300.167 1301 283.5C1267.67 266.833 1234.33 266.833 1201 283.5C1167.67 300.167 1134.33 300.167 1101 283.5C1067.67 266.833 1034.33 266.833 1001 283.5C967.667 300.167 934.333 300.167 901 283.5C867.667 266.833 834.333 266.833 801 283.5C767.667 300.167 734.333 300.167 701 283.5C667.667 266.833 634.333 266.833 601 283.5C567.667 300.167 534.333 300.167 501 283.5C467.667 266.833 434.333 266.833 401 283.5C367.667 300.167 334.333 300.167 301 283.5C267.667 266.833 234.333 266.833 201 283.5C167.667 300.167 134.333 300.167 101 283.5C67.6666 266.833 34.3334 266.833 1 283.5M2001 103.5C1967.67 120.167 1934.33 120.167 1901 103.5C1867.67 86.8333 1834.33 86.8333 1801 103.5C1767.67 120.167 1734.33 120.167 1701 103.5C1667.67 86.8333 1634.33 86.8333 1601 103.5C1567.67 120.167 1534.33 120.167 1501 103.5C1467.67 86.8333 1434.33 86.8333 1401 103.5C1367.67 120.167 1334.33 120.167 1301 103.5C1267.67 86.8333 1234.33 86.8333 1201 103.5C1167.67 120.167 1134.33 120.167 1101 103.5C1067.67 86.8333 1034.33 86.8333 1001 103.5C967.667 120.167 934.333 120.167 901 103.5C867.667 86.8333 834.333 86.8333 801 103.5C767.667 120.167 734.333 120.167 701 103.5C667.667 86.8333 634.333 86.8333 601 103.5C567.667 120.167 534.333 120.167 501 103.5C467.667 86.8333 434.333 86.8333 401 103.5C367.667 120.167 334.333 120.167 301 103.5C267.667 86.8333 234.333 86.8333 201 103.5C167.667 120.167 134.333 120.167 101 103.5C67.6666 86.8333 34.3334 86.8333 1 103.5M2001 328.5C1967.67 345.167 1934.33 345.167 1901 328.5C1867.67 311.833 1834.33 311.833 1801 328.5C1767.67 345.167 1734.33 345.167 1701 328.5C1667.67 311.833 1634.33 311.833 1601 328.5C1567.67 345.167 1534.33 345.167 1501 328.5C1467.67 311.833 1434.33 311.833 1401 328.5C1367.67 345.167 1334.33 345.167 1301 328.5C1267.67 311.833 1234.33 311.833 1201 328.5C1167.67 345.167 1134.33 345.167 1101 328.5C1067.67 311.833 1034.33 311.833 1001 328.5C967.667 345.167 934.333 345.167 901 328.5C867.667 311.833 834.333 311.833 801 328.5C767.667 345.167 734.333 345.167 701 328.5C667.667 311.833 634.333 311.833 601 328.5C567.667 345.167 534.333 345.167 501 328.5C467.667 311.833 434.333 311.833 401 328.5C367.667 345.167 334.333 345.167 301 328.5C267.667 311.833 234.333 311.833 201 328.5C167.667 345.167 134.333 345.167 101 328.5C67.6666 311.833 34.3334 311.833 1 328.5M2001 148.5C1967.67 165.167 1934.33 165.167 1901 148.5C1867.67 131.833 1834.33 131.833 1801 148.5C1767.67 165.167 1734.33 165.167 1701 148.5C1667.67 131.833 1634.33 131.833 1601 148.5C1567.67 165.167 1534.33 165.167 1501 148.5C1467.67 131.833 1434.33 131.833 1401 148.5C1367.67 165.167 1334.33 165.167 1301 148.5C1267.67 131.833 1234.33 131.833 1201 148.5C1167.67 165.167 1134.33 165.167 1101 148.5C1067.67 131.833 1034.33 131.833 1001 148.5C967.667 165.167 934.333 165.167 901 148.5C867.667 131.833 834.333 131.833 801 148.5C767.667 165.167 734.333 165.167 701 148.5C667.667 131.833 634.333 131.833 601 148.5C567.667 165.167 534.333 165.167 501 148.5C467.667 131.833 434.333 131.833 401 148.5C367.667 165.167 334.333 165.167 301 148.5C267.667 131.833 234.333 131.833 201 148.5C167.667 165.167 134.333 165.167 101 148.5C67.6666 131.833 34.3334 131.833 1 148.5M2001 238.5C1967.67 255.167 1934.33 255.167 1901 238.5C1867.67 221.833 1834.33 221.833 1801 238.5C1767.67 255.167 1734.33 255.167 1701 238.5C1667.67 221.833 1634.33 221.833 1601 238.5C1567.67 255.167 1534.33 255.167 1501 238.5C1467.67 221.833 1434.33 221.833 1401 238.5C1367.67 255.167 1334.33 255.167 1301 238.5C1267.67 221.833 1234.33 221.833 1201 238.5C1167.67 255.167 1134.33 255.167 1101 238.5C1067.67 221.833 1034.33 221.833 1001 238.5C967.667 255.167 934.333 255.167 901 238.5C867.667 221.833 834.333 221.833 801 238.5C767.667 255.167 734.333 255.167 701 238.5C667.667 221.833 634.333 221.833 601 238.5C567.667 255.167 534.333 255.167 501 238.5C467.667 221.833 434.333 221.833 401 238.5C367.667 255.167 334.333 255.167 301 238.5C267.667 221.833 234.333 221.833 201 238.5C167.667 255.167 134.333 255.167 101 238.5C67.6666 221.833 34.3334 221.833 1 238.5M2001 58.5C1967.67 75.1667 1934.33 75.1667 1901 58.5C1867.67 41.8333 1834.33 41.8333 1801 58.5C1767.67 75.1667 1734.33 75.1667 1701 58.5C1667.67 41.8333 1634.33 41.8333 1601 58.5C1567.67 75.1667 1534.33 75.1667 1501 58.5C1467.67 41.8333 1434.33 41.8333 1401 58.5C1367.67 75.1667 1334.33 75.1667 1301 58.5C1267.67 41.8333 1234.33 41.8333 1201 58.5C1167.67 75.1667 1134.33 75.1667 1101 58.5C1067.67 41.8333 1034.33 41.8333 1001 58.5C967.667 75.1667 934.333 75.1667 901 58.5C867.667 41.8333 834.333 41.8333 801 58.5C767.667 75.1667 734.333 75.1667 701 58.5C667.667 41.8333 634.333 41.8333 601 58.5C567.667 75.1667 534.333 75.1667 501 58.5C467.667 41.8333 434.333 41.8333 401 58.5C367.667 75.1667 334.333 75.1667 301 58.5C267.667 41.8333 234.333 41.8333 201 58.5C167.667 75.1667 134.333 75.1667 101 58.5C67.6666 41.8333 34.3334 41.8333 1 58.5M2001 13.5C1967.67 30.1667 1934.33 30.1667 1901 13.5C1867.67 -3.16667 1834.33 -3.16667 1801 13.5C1767.67 30.1667 1734.33 30.1667 1701 13.5C1667.67 -3.16667 1634.33 -3.16667 1601 13.5C1567.67 30.1667 1534.33 30.1667 1501 13.5C1467.67 -3.16667 1434.33 -3.16667 1401 13.5C1367.67 30.1667 1334.33 30.1667 1301 13.5C1267.67 -3.16667 1234.33 -3.16667 1201 13.5C1167.67 30.1667 1134.33 30.1667 1101 13.5C1067.67 -3.16667 1034.33 -3.16667 1001 13.5C967.667 30.1667 934.333 30.1667 901 13.5C867.667 -3.16667 834.333 -3.16667 801 13.5C767.667 30.1667 734.333 30.1667 701 13.5C667.667 -3.16667 634.333 -3.16667 601 13.5C567.667 30.1667 534.333 30.1667 501 13.5C467.667 -3.16667 434.333 -3.16667 401 13.5C367.667 30.1667 334.333 30.1667 301 13.5C267.667 -3.16667 234.333 -3.16667 201 13.5C167.667 30.1667 134.333 30.1667 101 13.5C67.6666 -3.16667 34.3334 -3.16667 1 13.5" stroke="url(#paint0_linear_419_38)" stroke-width="2"/>
<defs>
<linearGradient id="paint0_linear_419_38" x1="1001" y1="386" x2="1001" y2="1" gradientUnits="userSpaceOnUse">
<stop stop-color="#594296"/>
<stop offset="1" stop-color="#594296" stop-opacity="0"/>
</linearGradient>
</defs>
</svg>
